<?xml version="1.0" encoding="utf-8"?>
<!-- Generator: Adobe Illustrator 19.1.0, SVG Export Plug-In . SVG Version: 6.00 Build 0)  -->
<svg version="1.1" id="Layer_1" xmlns="http://www.w3.org/2000/svg" xmlns:xlink="http://www.w3.org/1999/xlink" x="0px" y="0px"
	 viewBox="-246.8 376.3 83.3 37.1" style="enable-background:new -246.8 376.3 83.3 37.1;" xml:space="preserve">
<path d="M-166.3,409c0.4-0.1,0.7-0.4,0.8-0.8l2-8c0-0.2,0-0.3,0-0.5l-1-3.5c-0.1-0.3-0.4-0.6-0.7-0.7l-22.7-5.9l-3.8-1.7l0.3-0.5
	c0.3-0.5,0.2-1.1-0.3-1.4c-0.5-0.3-1.1-0.2-1.4,0.3l-0.5,0.8l-4.3-1.9l0.5-0.7c0.3-0.5,0.2-1.1-0.3-1.4c-0.5-0.3-1.1-0.2-1.4,0.3
	l-0.7,1l-2.5-1.1c-0.3-0.3-0.8-0.8-1.4-1.3l0.2-0.3c0.3-0.5,0.2-1.1-0.3-1.4c-0.5-0.3-1.1-0.2-1.4,0.3l-0.1,0.1
	c-2.3-2-5.3-4.3-6.4-4.3c-1.8,0.1-1.1,5.5-0.9,6.7c-3,2.1-8,4.8-13.6,4.8c-9,0-15.4-5.3-15.5-5.3c-0.2-0.2-0.6-0.3-0.9-0.2
	c-0.3,0.1-0.6,0.3-0.7,0.6l-2.2,5.9c0,0.1-0.1,0.2-0.1,0.4V404c0,0.1,0,0.1,0,0.2l0.8,4c0.1,0.4,0.3,0.7,0.7,0.8h5
	c0.2,2.3,1.2,4.4,2.9,4.4s2.6-2.2,2.9-4.4h4.3c0.2,2.3,1.2,4.4,2.9,4.4s2.6-2.2,2.9-4.4h16.3c0.2,2.3,1.2,4.4,2.9,4.4
	c1.7,0,2.6-2.2,2.9-4.4h4.2c0.2,2.3,1.2,4.4,2.9,4.4c1.7,0,2.6-2.2,2.9-4.4h4.2c0.2,2.3,1.2,4.4,2.9,4.4c1.7,0,2.6-2.2,2.9-4.4h4.2
	c0.2,2.3,1.2,4.4,2.9,4.4c1.7,0,2.6-2.2,2.9-4.4H-166.3z M-243.5,389.3l1.7-4.5c0.9,0.6,2.2,1.4,4,2.3c-0.7,1.7-2.3,4.7-5.7,6.4
	V389.3z M-236.2,411.4c-0.2-0.2-0.7-1-0.9-2.4h1.7C-235.5,410.4-236,411.2-236.2,411.4z M-226.2,411.4c-0.2-0.2-0.7-1-0.9-2.4h1.7
	C-225.5,410.4-226,411.2-226.2,411.4z M-204.2,411.4c-0.2-0.2-0.7-1-0.9-2.4h1.7C-203.5,410.4-204,411.2-204.2,411.4z M-194.2,411.4
	c-0.2-0.2-0.7-1-0.9-2.4h1.7C-193.5,410.4-194,411.2-194.2,411.4z M-184.2,411.4c-0.2-0.2-0.7-1-0.9-2.4h1.7
	C-183.5,410.4-184,411.2-184.2,411.4z M-174.2,411.4c-0.2-0.2-0.7-1-0.9-2.4h1.7C-173.5,410.4-174,411.2-174.2,411.4z M-167.3,407
	h-75.6l-0.4-2h76.5L-167.3,407z M-166.3,403h-77.2v-7.4c0.1,0,0.1,0,0.2,0c4.5-1.8,6.5-5.6,7.4-7.7c2.7,1,6,1.9,9.9,1.9
	c8.5,0,15.5-5.5,17.4-7.2l1.6,0.7l-1,1.5c-0.3,0.5-0.2,1.1,0.3,1.4c0.2,0.1,0.4,0.2,0.6,0.2c0.3,0,0.6-0.2,0.8-0.4l1.2-1.8l4.3,1.9
	l-1.2,1.7c-0.3,0.5-0.2,1.1,0.3,1.4c0.2,0.1,0.4,0.2,0.6,0.2c0.3,0,0.6-0.2,0.8-0.4l1.4-2l4.3,1.9l-1.3,1.9
	c-0.3,0.5-0.2,1.1,0.3,1.4c0.2,0.1,0.4,0.2,0.6,0.2c0.3,0,0.6-0.2,0.8-0.4l1.5-2.2l4.2,1.9c0.1,0,0.1,0,0.2,0.1l22.2,5.7l0.8,2.7
	L-166.3,403z M-216,395.5c-0.2,0.3-0.2,0.7,0.1,1c0.3,0.3,0.7,0.2,1-0.1c0.2-0.3,0.2-0.7-0.1-1C-215.3,395.2-215.7,395.2-216,395.5z
	 M-213.1,392.1c-0.2,0.3-0.2,0.7,0.1,1s0.7,0.2,1-0.1c0.2-0.3,0.2-0.7-0.1-1C-212.4,391.8-212.9,391.8-213.1,392.1z M-210.3,388.7
	c-0.3,0.3-0.2,0.7,0.1,1c0.3,0.3,0.7,0.2,1-0.1c0.2-0.3,0.2-0.7-0.1-1C-209.6,388.4-210,388.4-210.3,388.7z M-206.7,399.5
	c-0.2,0.3-0.2,0.7,0.1,1c0.3,0.3,0.7,0.2,1-0.1c0.2-0.3,0.2-0.7-0.1-1C-206,399.2-206.4,399.2-206.7,399.5z M-203.8,396.1
	c-0.2,0.3-0.2,0.7,0.1,1c0.3,0.2,0.7,0.2,1-0.1c0.2-0.3,0.2-0.7-0.1-1C-203.1,395.8-203.6,395.8-203.8,396.1z M-201,392.7
	c-0.3,0.3-0.2,0.7,0.1,1c0.3,0.3,0.7,0.2,1-0.1c0.2-0.3,0.2-0.7-0.1-1C-200.3,392.4-200.7,392.4-201,392.7z"/>
</svg>
