<?xml version="1.0" encoding="utf-8"?>
<!-- Generator: Adobe Illustrator 19.1.0, SVG Export Plug-In . SVG Version: 6.00 Build 0)  -->
<svg version="1.1" id="Layer_1" xmlns="http://www.w3.org/2000/svg" xmlns:xlink="http://www.w3.org/1999/xlink" x="0px" y="0px"
	 viewBox="-281 367 48 48" style="enable-background:new -281 367 48 48;" xml:space="preserve">
<g>
	<path d="M-257,415c-0.3,0-0.6-0.1-0.8-0.4c-0.7-0.9-16.4-21.3-16.4-30.4c0-9.5,7.7-17.2,17.2-17.2s17.2,7.7,17.2,17.2
		c0,9.1-15.7,29.5-16.4,30.4C-256.4,414.9-256.7,415-257,415z M-257,369c-8.4,0-15.2,6.8-15.2,15.2c0,7.4,12,23.8,15.2,28.1
		c3.2-4.3,15.2-20.8,15.2-28.1C-241.8,375.8-248.6,369-257,369z"/>
	<path d="M-257,393.3c-5,0-9.1-4.1-9.1-9.1s4.1-9.1,9.1-9.1s9.1,4.1,9.1,9.1S-252,393.3-257,393.3z M-257,377.1
		c-3.9,0-7.1,3.2-7.1,7.1c0,3.9,3.2,7.1,7.1,7.1s7.1-3.2,7.1-7.1C-249.9,380.3-253.1,377.1-257,377.1z"/>
</g>
</svg>
